<?xml version="1.0" encoding="utf-8"?>
<!-- Generator: Adobe Illustrator 23.0.5, SVG Export Plug-In . SVG Version: 6.00 Build 0)  -->
<svg version="1.1" id="Layer_1" xmlns="http://www.w3.org/2000/svg" xmlns:xlink="http://www.w3.org/1999/xlink" x="0px" y="0px"
	 viewBox="0 0 56 56" style="enable-background:new 0 0 56 56;" xml:space="preserve">
<style type="text/css">
	.st0{fill:#446BEB;}
</style>
<g>
	<path class="st0" d="M29.5,46.8c0,0.5,0,1.1,0,1.7c0,2.6-1.8,4.4-4.4,4.5c-2,0-4.1,0-6.1,0c-2.2,0-4-1.6-4.2-3.8
		c-0.3-2.1,1-4.1,3-4.7c0.5-0.1,1-0.2,1.5-0.2c3.1,0,6.3,0,9.4,0c9-0.1,16.9-6.8,18.4-15.7c1.8-10.1-4.5-19.7-14.5-22
		C21.8,4,11,11.2,9.3,22.1C8.8,25,9,27.8,9.9,30.6c0.4,1.2-0.1,1.9-1.4,1.9c-1.4,0-2.7,0-4.1,0c-2.3,0-3.9-1.6-3.9-3.9
		c0-2.3,0-4.7,0-7c0-2.3,1.6-3.9,3.9-3.9c1,0,2,0,3.1,0c0.4,0,0.5-0.1,0.6-0.5c2.6-6.5,7.3-10.8,14-12.9c10.6-3.2,22,2.4,26.1,12.7
		c0.2,0.5,0.4,0.7,1,0.7c1-0.1,2,0,3.1,0c2,0,3.6,1.6,3.6,3.6c0,2.5,0,5.1,0,7.7c0,2-1.6,3.5-3.7,3.6c-1.1,0-2.2,0-3.3,0
		c-0.4,0-0.5,0.1-0.7,0.4c-2.7,6.7-7.6,11-14.5,13C32.4,46.3,31,46.5,29.5,46.8z M7.2,20.2c-1.1,0-2.1,0-3.1,0
		c-0.7,0-1.2,0.5-1.2,1.3c0,2.4,0,4.9,0,7.3c0,0.6,0.3,1.1,0.9,1.2c1.1,0.1,2.2,0,3.4,0C6.5,26.7,6.5,23.5,7.2,20.2z M49.4,30
		c0.8,0,1.7,0,2.6,0c0.2,0,0.4,0,0.5,0c0.6-0.1,1-0.6,1-1.2c0-2.5,0-4.9,0-7.4c0-0.6-0.4-1.1-1-1.2c-1.1-0.1-2.1,0-3.1,0
		c0.1,1.6,0.4,3.3,0.4,4.9C49.8,26.7,49.6,28.4,49.4,30z M27,46.7c-2.8,0-5.5,0-8.3,0c-0.9,0-1.6,0.9-1.6,1.9c0,1,0.7,1.8,1.7,1.8
		c2.1,0,4.3,0,6.4,0c0.9,0,1.6-0.6,1.7-1.6C27,48.2,27,47.5,27,46.7z"/>
	<path class="st0" d="M16.6,35.2c-0.2-0.3-0.4-0.5-0.5-0.6C8.8,25.3,14.3,11.5,26,9.9c8.5-1.2,16.3,4.7,17.5,13.1
		c1.2,8.5-4.8,16.3-13.3,17.4c-0.7,0.1-1.5,0.1-2.2,0.1c-4.5,0-9.1,0-13.6,0c-0.1,0-0.2,0-0.4,0c-0.5,0-0.9-0.3-1.1-0.8
		c-0.2-0.5-0.1-1,0.3-1.3c0.9-0.9,1.9-1.9,2.8-2.8C16.2,35.5,16.4,35.4,16.6,35.2z M17.1,37.9c0,0,0.1,0.1,0.1,0.1
		c0.1,0,0.3,0,0.4,0c3.6,0,7.1,0,10.7,0c7-0.1,12.6-5.4,12.9-12.4c0.4-8.5-7.6-15.1-15.8-13.1C15.6,14.8,12,26.6,18.8,34
		c0.8,0.9,0.8,1.5,0,2.3C18.2,36.8,17.6,37.4,17.1,37.9z"/>
	<path class="st0" d="M22,23.9c0.7,0,1.2,0.5,1.2,1.2c0,0.7-0.5,1.2-1.2,1.3c-0.7,0-1.2-0.5-1.2-1.2C20.8,24.5,21.4,23.9,22,23.9z"
		/>
	<path class="st0" d="M35.6,25.1c0,0.7-0.5,1.2-1.2,1.2c-0.7,0-1.2-0.6-1.2-1.2c0-0.7,0.6-1.2,1.2-1.2
		C35.1,23.9,35.6,24.4,35.6,25.1z"/>
	<path class="st0" d="M27,25c0-0.7,0.6-1.2,1.3-1.1c0.7,0.1,1.2,0.6,1.1,1.3c0,0.7-0.6,1.2-1.3,1.1C27.5,26.3,27,25.7,27,25z"/>
</g>
</svg>
