<?xml version="1.0" encoding="utf-8"?>
<!-- Generator: Adobe Illustrator 23.0.5, SVG Export Plug-In . SVG Version: 6.00 Build 0)  -->
<svg version="1.1" id="Layer_1" xmlns="http://www.w3.org/2000/svg" xmlns:xlink="http://www.w3.org/1999/xlink" x="0px" y="0px"
	 viewBox="0 0 99 179.3" style="enable-background:new 0 0 99 179.3;" xml:space="preserve">
<style type="text/css">
	.st0{fill:#446BEB;}
</style>
<g>
	<polygon class="st0" points="77.7,161.9 86.7,179.2 96.2,161.9 88.8,161.9 87,174.6 84.5,161.9 	"/>
	<circle class="st0" cx="87" cy="157.7" r="1.1"/>
	<circle class="st0" cx="85.8" cy="149.2" r="1.1"/>
	<circle class="st0" cx="83.9" cy="140.8" r="1.1"/>
	<circle class="st0" cx="81.1" cy="132.7" r="1.1"/>
	<circle class="st0" cx="77.4" cy="125" r="1.1"/>
	<circle class="st0" cx="72.7" cy="117.7" r="1.1"/>
	<circle class="st0" cx="67.5" cy="110.9" r="1.1"/>
	<circle class="st0" cx="61.4" cy="104.7" r="1.1"/>
	<circle class="st0" cx="47.1" cy="3.6" r="1.1"/>
	<circle class="st0" cx="54.9" cy="99.1" r="1.1"/>
	<circle class="st0" cx="48" cy="94" r="1.1"/>
	<circle class="st0" cx="40.6" cy="89.4" r="1.1"/>
	<circle class="st0" cx="33.1" cy="85" r="1.1"/>
	<circle class="st0" cx="26.1" cy="79.9" r="1.1"/>
	<circle class="st0" cx="20.1" cy="73.7" r="1.1"/>
	<circle class="st0" cx="15.6" cy="66.3" r="1.1"/>
	<circle class="st0" cx="13.3" cy="58.1" r="1.1"/>
	<circle class="st0" cx="13.4" cy="49.5" r="1.1"/>
	<circle class="st0" cx="15.7" cy="41.2" r="1.1"/>
	<circle class="st0" cx="19.4" cy="33.5" r="1.1"/>
	<circle class="st0" cx="24.2" cy="26.2" r="1.1"/>
	<circle class="st0" cx="29.4" cy="19.5" r="1.1"/>
	<circle class="st0" cx="35.3" cy="13" r="1.1"/>
	<circle class="st0" cx="40.9" cy="8.6" r="1.1"/>
</g>
</svg>
