<svg id="CurvyEgg_Logo_Header" data-name="CurvyEgg Logo Header" xmlns="http://www.w3.org/2000/svg" viewBox="0 0 132.69 41.35"><defs><style>.cls-1,.cls-2{fill:#446beb;}.cls-1{fill-rule:evenodd;}</style></defs><title>CurvyEgg Logo</title><path id="urvyEgg." class="cls-1" d="M30.42,26.25a16.63,16.63,0,0,0,.39,4.39,5.23,5.23,0,0,0,1.9,2.73,5.93,5.93,0,0,0,3.54,1,6.06,6.06,0,0,0,3.32-.83,5.22,5.22,0,0,0,2-2.4,14,14,0,0,0,.54-4.76V20.72H38.76v6.51a9.2,9.2,0,0,1-.21,2.45,2.34,2.34,0,0,1-.86,1.17,2.51,2.51,0,0,1-1.41.4,2.46,2.46,0,0,1-1.4-.4,2.28,2.28,0,0,1-.83-1.13,9.12,9.12,0,0,1-.26-2.6v-6.4H30.42v5.53ZM44.65,34H48V28a8.62,8.62,0,0,1,.53-3.73,1.52,1.52,0,0,1,1.3-.95,2.15,2.15,0,0,1,1,.29l1-2.87a3,3,0,0,0-1.35-.34,2.92,2.92,0,0,0-1.69.51,3.59,3.59,0,0,0-1.23,1.5V20.72H44.65Zm13,0h2.16l5.65-13.28H62.11l-3.35,7.84-3.35-7.84H52ZM71,33l-2.73,5.85h3.44L80,20.72H76.62l-3.8,8.33-3.45-8.33H66Zm11.8,1h9.8V30.64h-6.4V25.92h6.41V22.64H86.21V19.39h6.41V16h-9.8V34Zm22.44-11.82a6.79,6.79,0,0,0-2-1.38,5.55,5.55,0,0,0-2.17-.42,5.81,5.81,0,0,0-4.22,1.73,6.78,6.78,0,0,0-2,5.08,6.79,6.79,0,0,0,1.84,4.88,6.33,6.33,0,0,0,6.71,1.55,5.72,5.72,0,0,0,1.84-1.27,5.32,5.32,0,0,1-.34,2.27,2.51,2.51,0,0,1-1.15,1.08,4.88,4.88,0,0,1-2.16.42,5.34,5.34,0,0,1-1.82-.29A3.1,3.1,0,0,1,98.52,35H94.85a5.72,5.72,0,0,0,3.6,3.74,9.63,9.63,0,0,0,3.28.48,6.76,6.76,0,0,0,5.48-2.14,7.57,7.57,0,0,0,1.36-5V20.72h-3.32v1.46Zm-.84,2.35a3.69,3.69,0,0,1,1,2.7,3.77,3.77,0,0,1-1,2.72,3.4,3.4,0,0,1-2.55,1,3.57,3.57,0,0,1-2.64-1.06,4,4,0,0,1,0-5.38,3.78,3.78,0,0,1,5.22,0Zm17.84-2.35a6.79,6.79,0,0,0-2-1.38,5.55,5.55,0,0,0-2.17-.42,5.81,5.81,0,0,0-4.22,1.73,6.78,6.78,0,0,0-2,5.08,6.77,6.77,0,0,0,1.84,4.88,6.33,6.33,0,0,0,6.71,1.55,5.72,5.72,0,0,0,1.84-1.27,5.32,5.32,0,0,1-.34,2.27,2.51,2.51,0,0,1-1.15,1.08,4.88,4.88,0,0,1-2.16.42,5.34,5.34,0,0,1-1.82-.29,3.1,3.1,0,0,1-1.26-.85h-3.67a5.68,5.68,0,0,0,3.6,3.73,9.4,9.4,0,0,0,3.28.49,6.74,6.74,0,0,0,5.48-2.15,7.53,7.53,0,0,0,1.36-4.95V20.72h-3.32Zm-.84,2.35a3.69,3.69,0,0,1,1,2.7,3.77,3.77,0,0,1-1,2.72,3.4,3.4,0,0,1-2.55,1,3.57,3.57,0,0,1-2.64-1.06,4,4,0,0,1,0-5.38,3.78,3.78,0,0,1,5.22,0Zm8.49,6.55a1.8,1.8,0,0,0-.56,1.35,1.92,1.92,0,0,0,3.83,0,1.8,1.8,0,0,0-.56-1.35,1.93,1.93,0,0,0-2.71,0Z" transform="translate(-0.48 -0.32)"/><path class="cls-2" d="M24.71,7.93S21.59,3.58,18.2,2.2a4.89,4.89,0,0,0-1.72-.4c-3.43-.18-6.72,4.27-7.59,5.45a30.29,30.29,0,0,0-3.05,5.26C1.06,23,1.3,37.13,14.46,39.59c2.14.32,10.94.23,14.82-8C25.73,40.21,15.41,44.75,7.2,39.33-.53,34.24-.55,23.83,2,15.91,3.68,10.5,8.22.36,15.17.32,21.54.27,24.82,7.87,24.71,7.93Z" transform="translate(-0.48 -0.32)"/><path class="cls-2" d="M16.64,15.63h0l-.23,0h-.7A6.8,6.8,0,0,0,16,29.19a5.52,5.52,0,0,0,.58,0,1.77,1.77,0,0,1-1.15-1.65,2.28,2.28,0,0,1,0-.26h0a.59.59,0,0,1,.05-.23.58.58,0,0,1,.49-.36h.13l.55,0a5.62,5.62,0,0,0,1.64-.46,5.54,5.54,0,0,0-1.64-10.55ZM13,22.16a.52.52,0,0,1-.52-.52.52.52,0,0,1,.52-.53.53.53,0,0,1,.53.53A.52.52,0,0,1,13,22.16Zm2.4,0a.52.52,0,0,1-.53-.52.53.53,0,0,1,.53-.53.52.52,0,0,1,.52.53A.52.52,0,0,1,15.36,22.16Zm2.39,0a.52.52,0,0,1-.52-.52.52.52,0,0,1,.52-.53.53.53,0,0,1,.53.53A.52.52,0,0,1,17.75,22.16Z" transform="translate(-0.48 -0.32)"/><path class="cls-1" d="M11.8,4.52A30.43,30.43,0,0,0,5.18,16c-5,14.14,3.59,23.26,6.59,19.9,1-1.42.74-2.26-1.77-4.91C7,27.67,3.43,17.39,11.8,4.52Z" transform="translate(-0.48 -0.32)"/></svg>