<?xml version="1.0" encoding="utf-8"?>
<!-- Generator: Adobe Illustrator 23.0.5, SVG Export Plug-In . SVG Version: 6.00 Build 0)  -->
<svg version="1.1" id="Layer_1" xmlns="http://www.w3.org/2000/svg" xmlns:xlink="http://www.w3.org/1999/xlink" x="0px" y="0px"
	 viewBox="0 0 56 56" style="enable-background:new 0 0 56 56;" xml:space="preserve">
<style type="text/css">
	.st0{fill:#446BEB;}
</style>
<g>
	<path class="st0" d="M27.7,54.7c-0.8,0-1.6-0.4-2.3-1.1c-1.1-1.1-2.2-2.2-3.3-3.3c-0.8-0.9-1.7-1.1-2.9-0.9
		c-1.6,0.3-3.2,0.5-4.7,0.7c-1.8,0.2-3.4-0.9-3.7-2.7c-0.3-1.6-0.5-3.1-0.7-4.7c-0.1-1.2-0.7-2-1.8-2.5c-1.4-0.6-2.7-1.4-4.1-2.1
		c-2-1-2.5-2.9-1.5-4.8c0.7-1.4,1.4-2.8,2.1-4.2c0.5-0.9,0.5-1.8,0-2.7c-0.7-1.4-1.4-2.8-2.2-4.2c-1-1.9-0.3-3.8,1.6-4.7
		c1.4-0.7,2.8-1.4,4.2-2.1c1-0.5,1.5-1.3,1.7-2.4c0.2-1.6,0.5-3.1,0.7-4.7c0.3-1.9,1.9-3,3.8-2.8c1.5,0.2,3.1,0.4,4.6,0.7
		c1.2,0.2,2.1,0,2.9-0.9c1-1.1,2.1-2.2,3.2-3.2c1.5-1.5,3.5-1.5,5.1,0c1.1,1.1,2.2,2.1,3.3,3.3c0.8,0.8,1.7,1.1,2.8,0.9
		c1.6-0.3,3.2-0.5,4.7-0.7C43,5.3,44.7,6.5,45,8.3c0.3,1.6,0.5,3.2,0.8,4.7c0.1,1.1,0.7,1.9,1.7,2.4c1.4,0.6,2.7,1.4,4.1,2
		c2,1,2.6,2.9,1.6,4.8c-0.7,1.4-1.4,2.8-2.2,4.2c-0.5,0.9-0.5,1.7,0,2.6c0.7,1.4,1.4,2.8,2.2,4.2c1,2,0.4,3.8-1.6,4.8
		c-1.4,0.7-2.7,1.4-4.1,2.1c-1,0.5-1.5,1.3-1.7,2.4c-0.2,1.6-0.5,3.1-0.7,4.7c-0.3,1.9-1.9,3-3.8,2.8c-1.6-0.2-3.1-0.5-4.7-0.7
		c-1.1-0.2-2.1,0-2.9,0.9c-1.1,1.1-2.2,2.2-3.3,3.3C29.6,54.4,28.8,54.7,27.7,54.7z M3.2,35.1c0.1,0.9,0.6,1.7,1.5,2.2
		c1.5,0.8,3,1.5,4.4,2.3c1,0.5,1.7,1.4,1.9,2.5c0.3,1.7,0.5,3.4,0.8,5.1c0.3,1.4,1.3,2.1,2.7,1.9c1.6-0.2,3.1-0.5,4.7-0.7
		c1.4-0.3,2.6,0.1,3.6,1.1c1.1,1.1,2.2,2.2,3.3,3.3c1.1,1.1,2.5,1.1,3.7,0c1.1-1.1,2.1-2.1,3.2-3.2c1.1-1.1,2.3-1.5,3.8-1.2
		c1.4,0.3,2.9,0.5,4.3,0.7c1.8,0.3,2.8-0.5,3.1-2.4c0.2-1.5,0.5-3,0.7-4.6c0.2-1.3,0.9-2.2,2.1-2.7c1.4-0.7,2.8-1.4,4.2-2.1
		c1.4-0.7,1.8-2,1.1-3.4c-0.7-1.4-1.4-2.8-2.2-4.2c-0.6-1.2-0.6-2.4,0-3.6c0.7-1.3,1.4-2.7,2.1-4c0.8-1.7,0.5-2.8-1.2-3.7
		c-1.4-0.7-2.7-1.4-4.1-2.1c-1.1-0.6-1.8-1.4-2-2.7c-0.3-1.7-0.5-3.4-0.8-5.1c-0.2-1.3-1.3-2.1-2.6-1.9c-1.6,0.2-3.2,0.5-4.7,0.7
		C35.2,7.6,34,7.3,33,6.2c-1.1-1.1-2.2-2.2-3.3-3.3c-1.1-1.1-2.5-1.1-3.6,0C25,4,23.9,5,22.9,6.1c-1.1,1.1-2.3,1.5-3.8,1.2
		c-1.4-0.3-2.9-0.5-4.3-0.7C13,6.4,12,7.2,11.7,9c-0.2,1.5-0.5,3-0.7,4.6c-0.2,1.3-0.9,2.2-2,2.7c-1.4,0.7-2.8,1.4-4.2,2.1
		c-1.6,0.8-2,2-1.2,3.6c0.7,1.4,1.4,2.7,2.1,4.1c0.6,1.2,0.6,2.4,0,3.6c-0.7,1.4-1.4,2.8-2.1,4.2C3.4,34.3,3.3,34.7,3.2,35.1z"/>
	<path class="st0" d="M41.2,47.1c-1.3-0.2-2.8-0.4-4.4-0.7c-2-0.3-3.7,0.2-5.2,1.6c-1,1-2,2-3,3c-0.6,0.6-0.8,0.6-1.4,0
		c-0.9-0.9-1.8-1.7-2.6-2.6c-1.7-2-3.9-2.6-6.4-2c-1.2,0.3-2.4,0.4-3.6,0.6c-0.6,0.1-0.8-0.1-0.9-0.7c-0.2-1.5-0.5-3-0.7-4.6
		c-0.3-1.9-1.3-3.2-2.9-4.1c-1.4-0.7-2.8-1.4-4.2-2.1c-0.5-0.3-0.6-0.6-0.4-1.1c0.7-1.3,1.4-2.7,2.1-4c0.9-1.8,0.9-3.5,0-5.3
		c-0.7-1.3-1.4-2.7-2-4c-0.3-0.6-0.3-0.8,0.4-1.1c1.4-0.7,2.7-1.4,4.1-2.1c1.7-0.9,2.7-2.3,3-4.1c0.2-1.5,0.5-3,0.7-4.6
		c0.1-0.6,0.3-0.8,0.9-0.7c1.5,0.2,2.9,0.4,4.4,0.7c2,0.3,3.7-0.1,5.1-1.6c1.1-1.1,2.1-2.1,3.2-3.2c0.5-0.5,0.7-0.5,1.2,0
		c0.9,0.9,1.8,1.7,2.6,2.6c1.7,2,3.9,2.6,6.4,2C38.7,9,40,8.9,41.2,8.7c0.6-0.1,0.8,0.1,0.9,0.7c0.2,1.5,0.5,3,0.7,4.6
		c0.3,1.9,1.3,3.2,2.9,4.1c1.4,0.7,2.7,1.4,4.1,2.1c0.7,0.3,0.7,0.5,0.4,1.2c-0.6,1.3-1.3,2.6-2,3.8c-1,1.9-1,3.7,0,5.6
		c0.7,1.3,1.3,2.6,2,3.9c0.3,0.6,0.3,0.8-0.4,1.1c-1.3,0.7-2.6,1.3-3.9,2c-1.8,0.9-2.8,2.3-3.1,4.3c-0.2,1.5-0.5,3-0.7,4.6
		C42,46.9,41.9,47.2,41.2,47.1z M49.3,34.8c-0.7-1.3-1.3-2.6-1.9-3.8c-1.1-2.1-1.1-4.2,0-6.3c0.6-1.2,1.3-2.5,1.9-3.8
		c-1.4-0.7-2.7-1.4-4-2.1c-2-1-3.1-2.7-3.5-4.8c-0.2-1.4-0.5-2.9-0.7-4.3c-1.2,0.2-2.3,0.3-3.5,0.6c-2.8,0.6-5.2-0.1-7.1-2.2
		c-0.5-0.5-1-1-1.5-1.5c-0.4-0.4-0.7-0.8-1.1-1.2c-1.1,1.2-2.1,2.2-3.2,3.2c-1.7,1.7-3.7,2.2-6,1.9c-1.4-0.2-2.7-0.4-4.2-0.7
		c-0.2,1.2-0.4,2.4-0.6,3.7c-0.3,2.7-1.7,4.7-4.2,5.9c-1,0.5-2,1-2.9,1.5c-0.2,0.1-0.3,0.2-0.5,0.3c0.6,1.2,1.2,2.4,1.8,3.6
		c1.2,2.2,1.2,4.4,0,6.6c-0.6,1.2-1.2,2.4-1.9,3.6c1.4,0.7,2.8,1.4,4.1,2.1c1.9,1,3,2.6,3.3,4.8c0.2,1.4,0.5,2.9,0.7,4.3
		c1.2-0.2,2.3-0.3,3.5-0.6c2.8-0.6,5.2,0.1,7.1,2.2c0.4,0.4,0.8,0.8,1.2,1.2c0.4,0.5,0.9,1,1.3,1.5c1.1-1.2,2.2-2.2,3.2-3.2
		c1.7-1.7,3.6-2.2,6-1.9c1.4,0.2,2.7,0.4,4.2,0.7c0.2-1.2,0.4-2.4,0.6-3.6c0.3-2.7,1.6-4.7,4.1-5.8C47,36.1,48.1,35.4,49.3,34.8z"/>
	<path class="st0" d="M23.9,21.3c0-0.3,0-0.6,0-0.9c0.6-0.2,1.2-0.3,1.7-0.6c1.2-0.6,1.7-1.7,1.8-3c0-1,0-2,0-3
		c0-1.6,1.2-2.7,2.8-2.6c2.3,0.1,4.2,2.1,4.3,4.4c0,1.2,0,2.5,0,3.7c0,0.9,0.1,1,1,1c0.9,0,1.7,0,2.6,0c2.5,0,4.5,2,4.5,4.5
		c0,2.8,0,5.6,0,8.3c-0.1,3.4-2.8,6.3-6.1,6.3c-4.2,0.1-8.3,0-12.6,0c0-0.3,0-0.6,0-1c0.2,0,0.4,0,0.7,0c3.7,0,7.4,0,11.1,0
		c3.5,0,5.9-2.4,5.9-5.9c0-2.5,0-5,0-7.5c0-2.3-1.5-3.8-3.8-3.8c-0.9,0-1.8,0-2.7,0c-1,0-1.6-0.6-1.6-1.7c0-1.3,0-2.6,0-3.9
		c0-1.8-1.3-3.2-3-3.5c-1.2-0.2-2.1,0.5-2.1,1.7c0,1,0,2,0,3C28.3,19.3,26.3,21.3,23.9,21.3z"/>
	<path class="st0" d="M22.3,29.9c0,2.9,0,5.9,0,8.8c0,1.3-0.6,1.8-1.8,1.8c-1.2,0-2.4,0-3.5,0c-1.1,0-1.7-0.6-1.7-1.7
		c0-6,0-11.9,0-17.9c0-1.1,0.6-1.7,1.7-1.7c1.2,0,2.4,0,3.6,0c1.2,0,1.8,0.6,1.8,1.8C22.3,24,22.3,27,22.3,29.9z M16.3,29.9
		c0,2.9,0,5.9,0,8.8c0,0.6,0.2,0.8,0.8,0.8c1.2,0,2.3,0,3.5,0c0.6,0,0.8-0.2,0.8-0.8c0-5.9,0-11.8,0-17.7c0-0.6-0.2-0.8-0.8-0.8
		c-1.1,0-2.2,0-3.3,0c-0.8,0-0.9,0.1-0.9,0.9C16.3,24.1,16.3,27,16.3,29.9z"/>
	<path class="st0" d="M20.3,22.9c0,0.8-0.7,1.5-1.5,1.5c-0.8,0-1.5-0.7-1.5-1.5c0-0.8,0.7-1.5,1.5-1.5
		C19.7,21.3,20.3,22.1,20.3,22.9z"/>
</g>
</svg>
