<?xml version="1.0" encoding="utf-8"?>
<!-- Generator: Adobe Illustrator 23.0.5, SVG Export Plug-In . SVG Version: 6.00 Build 0)  -->
<svg version="1.1" id="Layer_1" xmlns="http://www.w3.org/2000/svg" xmlns:xlink="http://www.w3.org/1999/xlink" x="0px" y="0px"
	 viewBox="0 0 56 56" style="enable-background:new 0 0 56 56;" xml:space="preserve">
<style type="text/css">
	.st0{fill:#446BEB;}
</style>
<g>
	<path class="st0" d="M36.2,31.8c-10.1,0-20.1,0-30.3,0c0,0.2,0,0.5,0,0.7c0,3.1,0,6.2,0,9.2c0,0.2,0,0.3,0,0.5
		c0,0.5-0.3,0.8-0.7,0.8c-0.5,0-0.7-0.3-0.8-0.8c0-0.2,0-0.3,0-0.5c0-5,0-10,0-15c0-1.6,0.7-2.3,2.2-2.3c1.5,0,3,0,4.6,0
		c0-0.2,0-0.4,0-0.6c0-2.8,0-5.7,0-8.5c0-1.4,0.7-2.2,2.1-2.2c1.5,0,3.1,0,4.7,0c0-0.2,0-0.4,0-0.6c0-2.9,0-5.7,0-8.6
		c0-1.4,0.7-2.1,2.1-2.1c9.8,0,19.5,0,29.3,0c1.3,0,2,0.7,2,2c0,8.6,0,17.2,0,25.9c0,1.3-0.7,2-2,2c-1.6,0-3.2,0-4.8,0
		c0,0.2,0,0.4,0,0.6c0,0.9,0,1.7,0,2.6c0,0.4-0.3,0.7-0.7,0.7c-0.5,0-0.7-0.2-0.8-0.7c0-0.2,0-0.4,0-0.5c0-4.4,0-8.9,0-13.3
		c0-0.2,0-0.4,0-0.7c-10.1,0-20.2,0-30.3,0c0,1.3,0,2.5,0,3.9c0.2,0,0.4,0,0.6,0c7.3,0,14.7,0,22,0c1.6,0,2.3,0.7,2.3,2.3
		c0,4.7,0,9.4,0,14.1c0,0.2,0,0.4,0,0.7c0.2,0,0.4,0,0.5,0c1.4,0,2.8,0,4.2,0c0.5,0,0.7-0.2,0.7-0.7c0-0.8,0-1.6,0-2.4
		c0-0.6,0.3-1,0.8-1c0.5,0,0.7,0.3,0.7,1c0,0.9,0,1.7,0,2.6c0,1.2-0.7,1.9-1.9,1.9c-1.4,0-2.8,0-4.3,0c-0.2,0-0.4,0-0.7,0
		c0,0.3,0,0.5,0,0.7c0,2.8,0,5.6,0,8.4c0,1.6-0.7,2.2-2.2,2.2c-9.6,0-19.2,0-28.9,0c-1.6,0-2.3-0.7-2.3-2.3c0-2,0-4.1,0-6.1
		c0-0.2,0-0.4,0-0.6c0.1-0.4,0.4-0.6,0.8-0.6c0.4,0,0.6,0.2,0.7,0.6c0,0.2,0,0.4,0,0.7c0,2,0,4,0,6c0,0.7,0,0.8,0.7,0.8
		c9.6,0,19.2,0,28.9,0c0.5,0,0.7-0.1,0.7-0.7c0-6.6,0-13.2,0-19.9C36.2,32.1,36.2,32,36.2,31.8z M43.1,18.9c0-1.2,0-2.4,0-3.5
		c0-0.7,0-0.7-0.7-0.7c-3.5,0-6.9,0-10.4,0c-0.2,0-0.4,0-0.5,0c-0.4-0.1-0.6-0.3-0.6-0.8c0-0.4,0.3-0.7,0.7-0.7c0.2,0,0.4,0,0.5,0
		c3.4,0,6.9,0,10.3,0c1.6,0,2.3,0.6,2.3,2.2c0,4.7,0,9.4,0,14.2c0,0.2,0,0.4,0,0.7c1.6,0,3.1,0,4.6,0c0.7,0,0.7,0,0.7-0.7
		c0-6.6,0-13.2,0-19.7c0-0.2,0-0.4,0-0.5c-10.1,0-20.2,0-30.2,0c0,1.3,0,2.6,0,3.9c0.2,0,0.4,0,0.6,0c2.5,0,5,0,7.5,0
		c0.2,0,0.3,0,0.5,0c0.4,0.1,0.6,0.3,0.6,0.8c0,0.4-0.2,0.7-0.6,0.8c-0.2,0-0.4,0-0.5,0c-1.1,0-2.1,0-3.2,0c0,1.4,0,2.8,0,4.3
		C30.8,18.9,36.9,18.9,43.1,18.9z M50,7.6c0-1.2,0-2.4,0-3.5c0-0.7,0-0.7-0.7-0.7c-5.7,0-11.4,0-17.2,0c-0.2,0-0.4,0-0.6,0
		c0,1.5,0,2.8,0,4.2C37.7,7.6,43.8,7.6,50,7.6z M36.2,30.2c0-1.2,0-2.4,0-3.5c0-0.7,0-0.8-0.8-0.8c-5.7,0-11.4,0-17.1,0
		c-0.2,0-0.4,0-0.6,0c0,1.5,0,2.9,0,4.2C23.9,30.2,30,30.2,36.2,30.2z M29.9,3.5c-0.1,0-0.1-0.1-0.1-0.1c-3.2,0-6.4,0-9.7,0
		c-0.4,0-0.4,0.2-0.4,0.5c0,0.9,0,1.8,0,2.7c0,0.3,0,0.7,0,1c3.5,0,6.8,0,10.2,0C29.9,6.2,29.9,4.8,29.9,3.5z M23,14.7
		c-3.3,0-6.6,0-9.8,0c-0.1,0-0.4,0.2-0.4,0.3c0,1.3,0,2.6,0,3.9c3.4,0,6.8,0,10.2,0C23,17.5,23,16.1,23,14.7z M16.2,26
		C16.1,26,16.1,26,16.2,26c-3.3-0.1-6.5-0.1-9.8-0.1c-0.4,0-0.5,0.2-0.5,0.5c0,0.9,0,1.8,0,2.7c0,0.3,0,0.6,0,1c3.4,0,6.8,0,10.2,0
		C16.2,28.8,16.2,27.4,16.2,26z"/>
	<path class="st0" d="M21,42.3c-3.7,0-7.4,0-11,0c-1,0-1.1-0.2-1.1-1.2c0-1.9,0-3.9,0-5.8c0-0.8,0.2-1,1-1c7.5,0,14.9,0,22.4,0
		c0.8,0,1,0.3,1,1c0,1.9,0,3.9,0,5.8c0,1-0.2,1.2-1.1,1.2C28.4,42.3,24.7,42.3,21,42.3z M10.4,40.7c7.1,0,14.2,0,21.3,0
		c0-1.6,0-3.3,0-4.9c-7.1,0-14.2,0-21.3,0C10.4,37.4,10.4,39,10.4,40.7z"/>
	<path class="st0" d="M21.1,45.3c-3.7,0-7.4,0-11,0c-0.2,0-0.3,0-0.5,0c-0.4-0.1-0.7-0.3-0.7-0.8c0-0.4,0.3-0.7,0.7-0.7
		c0.2,0,0.3,0,0.5,0c7.3,0,14.7,0,22,0c0.1,0,0.3,0,0.4,0c0.4,0,0.7,0.3,0.7,0.7c0,0.4-0.3,0.8-0.7,0.8c-0.2,0-0.3,0-0.5,0
		C28.4,45.3,24.7,45.3,21.1,45.3z"/>
	<path class="st0" d="M21.1,47.6c-3.7,0-7.4,0-11,0c-0.2,0-0.4,0-0.6-0.1c-0.4-0.1-0.6-0.4-0.5-0.8c0.1-0.3,0.4-0.5,0.6-0.6
		c0.1-0.1,0.4,0,0.5,0c7.3,0,14.7,0,22,0c0.1,0,0.3,0,0.4,0c0.4,0,0.7,0.3,0.7,0.7c0,0.4-0.3,0.7-0.7,0.8c-0.2,0-0.3,0-0.5,0
		C28.4,47.6,24.7,47.6,21.1,47.6z"/>
	<path class="st0" d="M21.1,48.3c3.6,0,7.3,0,10.9,0c0.2,0,0.4-0.1,0.6,0c0.2,0.2,0.5,0.4,0.6,0.6c0.1,0.4-0.1,0.7-0.5,0.8
		c-0.2,0.1-0.4,0.1-0.6,0.1c-7.4,0-14.7,0-22.1,0c-0.2,0-0.4,0-0.6-0.1C9,49.7,8.8,49.3,8.9,49c0.1-0.3,0.4-0.5,0.6-0.6
		c0.1-0.1,0.4,0,0.6,0C13.8,48.3,17.4,48.3,21.1,48.3z"/>
	<path class="st0" d="M23.4,5.5c0,0.4-0.4,0.8-0.8,0.7c-0.4,0-0.8-0.3-0.7-0.8c0-0.4,0.3-0.8,0.8-0.8C23,4.7,23.4,5.1,23.4,5.5z"/>
	<path class="st0" d="M24.8,6.3c-0.4,0-0.8-0.3-0.8-0.8c0-0.4,0.3-0.8,0.8-0.8c0.4,0,0.8,0.4,0.8,0.8C25.6,5.9,25.2,6.3,24.8,6.3z"
		/>
	<path class="st0" d="M27.7,5.5c0,0.4-0.4,0.7-0.8,0.7c-0.4,0-0.7-0.3-0.7-0.8c0-0.4,0.4-0.8,0.8-0.7C27.4,4.8,27.8,5.1,27.7,5.5z"
		/>
	<path class="st0" d="M16.5,16.8c0,0.4-0.4,0.8-0.8,0.7c-0.4,0-0.8-0.4-0.7-0.8c0-0.4,0.3-0.7,0.8-0.7C16.2,16,16.5,16.4,16.5,16.8z
		"/>
	<path class="st0" d="M17.9,17.6c-0.4,0-0.8-0.3-0.8-0.8c0-0.4,0.3-0.8,0.8-0.8c0.4,0,0.8,0.3,0.8,0.8
		C18.7,17.2,18.3,17.6,17.9,17.6z"/>
	<path class="st0" d="M20.9,16.8c0,0.4-0.4,0.8-0.8,0.8c-0.4,0-0.8-0.3-0.8-0.8c0-0.4,0.3-0.8,0.8-0.7C20.5,16,20.9,16.4,20.9,16.8z
		"/>
	<path class="st0" d="M8.9,28.8c-0.4,0-0.8-0.3-0.8-0.7c0-0.4,0.3-0.8,0.7-0.8c0.4,0,0.8,0.3,0.8,0.7C9.6,28.5,9.3,28.8,8.9,28.8z"
		/>
	<path class="st0" d="M11,27.3c0.4,0,0.8,0.3,0.8,0.7c0,0.4-0.3,0.8-0.7,0.8c-0.4,0-0.8-0.3-0.8-0.7C10.3,27.7,10.6,27.3,11,27.3z"
		/>
	<path class="st0" d="M14,28.1c0,0.4-0.3,0.8-0.7,0.8c-0.4,0-0.8-0.3-0.8-0.7c0-0.4,0.3-0.8,0.7-0.8C13.6,27.3,14,27.6,14,28.1z"/>
</g>
</svg>
