<?xml version="1.0" encoding="utf-8"?>
<!-- Generator: Adobe Illustrator 23.0.5, SVG Export Plug-In . SVG Version: 6.00 Build 0)  -->
<svg version="1.1" id="Layer_1" xmlns="http://www.w3.org/2000/svg" xmlns:xlink="http://www.w3.org/1999/xlink" x="0px" y="0px"
	 viewBox="0 0 56 56" style="enable-background:new 0 0 56 56;" xml:space="preserve">
<style type="text/css">
	.st0{fill:#446BEB;}
</style>
<g>
	<path class="st0" d="M55.3,1.3c0,0.2,0,0.4,0,0.5c-0.5,0.6-1,1.1-1.5,1.6c0.5,0.7,1,1.3,1.5,2c0,0.3,0,0.6,0,0.9
		c-0.3,0.4-0.6,0.9-1,1.2c-1.3,0.9-2.6,1.8-4,2.7c-0.2,0.2-0.5,0.3-0.8,0.4c-0.8,0.2-1.5-0.2-2-0.7c-0.9,0.9-1.7,1.7-2.6,2.6
		c0,0,0,0,0,0c0.1,0.1,0.2,0.3,0.3,0.4c5.5,6.4,7.5,13.8,5.9,22c-2,10.1-10.3,18.2-20.5,20c-1,0.2-2,0.3-3,0.4c-1,0-2.1,0-3.1,0
		c-0.2,0-0.3-0.1-0.5-0.1c-3.2-0.3-6.3-1.1-9.1-2.5c-8.1-4.2-12.9-10.9-14.1-20c-0.6-4.5,0-8.9,1.9-13c4-8.8,10.9-13.9,20.6-15.2
		c5-0.7,9.7,0.3,14.2,2.5c2.2,1.1,4.2,2.5,5.9,4.1c0.9-0.9,1.7-1.7,2.6-2.6c-0.8-0.9-1-1.7-0.4-2.7c0.9-1.4,1.9-2.8,2.8-4.2
		c0.7-1.1,2.1-1.2,3-0.3c0.3,0.3,0.6,0.7,1,1.1c0.4-0.5,0.8-0.8,1.1-1.2C54.3,0.5,54.8,0.5,55.3,1.3z M25.9,15.2
		c-0.4,0-1.1,0.1-1.8,0.2c-8.2,1.1-13.8,9-12.3,17.1c1.9,9.9,12.9,15,21.7,9.9c7.6-4.3,9.6-14.4,4.4-21.4c-0.2-0.3-0.4-0.5-0.9-0.6
		c-0.8-0.1-1.3-0.7-1.5-1.5c-0.1-0.3-0.2-0.6-0.4-0.7C32.5,16.3,29.5,15.3,25.9,15.2z M42.2,12.4c-8.4-8-23-9-32.7,0.6
		c-9.6,9.5-9.3,25.1,0.8,34.3c9.9,9,25.4,8.1,34.2-2.5c8.4-10.2,6.2-23.9-0.8-31c-0.4,0.3-0.8,0.7-1.2,1.1c0.6,0.5,1.1,1,1.6,1.6
		c0.6,0.6,0.7,1.4,0.4,2.2c-0.1,0.2-0.1,0.5,0,0.7c1.5,2.6,2.4,5.4,2.7,8.4c0.5,6.3-1.3,11.8-5.6,16.4c-6.2,6.6-15.7,8.5-23.9,4.6
		C9.9,45.3,5.9,39.1,5.3,30.8C4.9,25.1,6.8,20,10.7,15.8c4.9-5.4,11.2-7.6,18.4-6.7c2.7,0.3,5.2,1.2,7.5,2.6
		c0.2,0.1,0.4,0.1,0.6,0.1c1-0.4,1.7-0.3,2.5,0.5c0.5,0.5,0.9,1,1.4,1.4C41.5,13.2,41.8,12.8,42.2,12.4z M35.8,16.5
		c0.1-0.8,0.2-1.6,0.4-2.4c0.1-0.4,0-0.6-0.4-0.8c-4.2-2.4-8.7-3.1-13.4-2.1c-11.4,2.4-17.9,14-14.2,25c4.4,13.1,21.4,17.2,31.3,7.5
		c4.5-4.4,6.4-9.9,5.7-16.2c-0.3-2.6-1.1-5-2.5-7.2c-0.1-0.2-0.3-0.3-0.4-0.3c-0.9,0.1-1.8,0.3-2.7,0.4c2.6,3.8,3.6,7.9,2.8,12.4
		c-0.8,4.5-3.1,8-6.8,10.7C29,47.9,20,47,14.4,41.2C8.8,35.4,8.3,26.5,13,20C17.8,13.6,27.8,10.9,35.8,16.5z M47.1,6.9
		c0.6,0.6,1.1,1.1,1.7,1.7c0.2,0.3,0.4,0.2,0.7,0.1c1.2-0.8,2.5-1.7,3.7-2.5C53.3,6.1,53.4,6,53.4,6c-1.1-1.1-2.2-2.2-3.4-3.4
		C49.1,4,48.1,5.4,47.1,6.9z M38.1,13.4c-0.3,1.7-0.5,3.5-0.8,5.3c1.9-0.3,3.6-0.6,5.4-0.8C41.1,16.4,39.6,14.9,38.1,13.4z"/>
	<path class="st0" d="M29.9,20.7c1.4,0,2.8,0,4.2,0c0.2,0,0.6,0,0.7,0.1c0.2,0.2,0.5,0.6,0.5,0.9c0,0.3-0.3,0.6-0.6,0.8
		c-0.1,0.1-0.4,0.1-0.6,0.1c-2.8,0-5.6,0-8.4,0c-0.1,0-0.1,0-0.2,0c-0.7,0-1.1-0.4-1.1-0.9c0-0.5,0.4-0.9,1.1-0.9
		C27,20.7,28.5,20.7,29.9,20.7z"/>
	<path class="st0" d="M29.9,28c-1.4,0-2.8,0-4.2,0c-0.2,0-0.5,0-0.7-0.1c-0.4-0.1-0.6-0.5-0.6-0.9c0-0.4,0.3-0.7,0.7-0.8
		c0.2,0,0.3,0,0.5,0c2.8,0,5.7,0,8.5,0c0.1,0,0.3,0,0.4,0c0.4,0.1,0.7,0.3,0.7,0.8c0,0.5-0.2,0.8-0.6,0.9C34.5,28,34.3,28,34.1,28
		C32.7,28,31.3,28,29.9,28z"/>
	<path class="st0" d="M29.9,31.6c1.4,0,2.9,0,4.3,0c0.7,0,1.1,0.3,1.1,0.9c0,0.6-0.4,0.9-1.1,0.9c-2.9,0-5.8,0-8.7,0
		c-0.4,0-0.8-0.1-1-0.5c-0.1-0.3-0.1-0.7,0.1-0.9c0.2-0.2,0.6-0.4,0.9-0.4C27,31.6,28.4,31.6,29.9,31.6z"/>
	<path class="st0" d="M29.9,38.9c-1.4,0-2.9,0-4.3,0c-0.7,0-1.1-0.4-1.1-0.9c0-0.6,0.4-0.9,1.1-0.9c2.9,0,5.8,0,8.6,0
		c0.7,0,1.1,0.3,1.1,0.9c0,0.6-0.4,0.9-1.1,0.9C32.7,38.9,31.3,38.9,29.9,38.9z"/>
	<path class="st0" d="M19,37.6c0.6-0.7,1.3-1.3,1.9-1.9c0.5-0.5,1-0.5,1.4-0.1c0.4,0.4,0.3,0.9-0.2,1.4c-0.8,0.8-1.6,1.6-2.4,2.4
		c-0.5,0.5-1,0.5-1.6,0c-0.2-0.2-0.4-0.4-0.6-0.6c-0.5-0.5-0.5-1-0.1-1.4c0.4-0.4,0.9-0.4,1.4,0C18.8,37.4,18.9,37.5,19,37.6z"/>
	<path class="st0" d="M19,21.2c0.7-0.7,1.3-1.3,1.9-1.9c0.5-0.5,1-0.5,1.4-0.2c0.4,0.4,0.4,0.9-0.1,1.4c-0.8,0.8-1.6,1.6-2.4,2.4
		c-0.5,0.5-1,0.5-1.5,0c-0.2-0.2-0.5-0.4-0.7-0.7c-0.5-0.5-0.5-1-0.1-1.4c0.4-0.4,0.9-0.4,1.4,0C18.8,21.1,18.9,21.1,19,21.2z"/>
	<path class="st0" d="M19,26.7c0.7-0.7,1.3-1.3,1.9-1.9c0.5-0.5,1.1-0.5,1.4-0.1c0.4,0.4,0.3,0.9-0.2,1.4c-0.8,0.8-1.6,1.6-2.4,2.4
		c-0.6,0.6-1,0.5-1.6,0c-0.2-0.2-0.5-0.4-0.7-0.7c-0.4-0.4-0.5-0.9-0.1-1.3c0.3-0.4,0.9-0.4,1.3,0C18.8,26.5,18.8,26.6,19,26.7z"/>
	<path class="st0" d="M19,32.1c0.7-0.7,1.3-1.3,1.9-1.9c0.5-0.5,1.1-0.5,1.4-0.1c0.4,0.4,0.3,0.9-0.2,1.4c-0.8,0.8-1.6,1.6-2.4,2.4
		c-0.6,0.5-1,0.5-1.6,0c-0.2-0.2-0.5-0.4-0.7-0.7c-0.4-0.4-0.5-0.9-0.1-1.3c0.4-0.4,0.9-0.4,1.3,0C18.8,32,18.8,32,19,32.1z"/>
</g>
</svg>
