<?xml version="1.0" encoding="utf-8"?>
<!-- Generator: Adobe Illustrator 23.0.5, SVG Export Plug-In . SVG Version: 6.00 Build 0)  -->
<svg version="1.1" id="Layer_1" xmlns="http://www.w3.org/2000/svg" xmlns:xlink="http://www.w3.org/1999/xlink" x="0px" y="0px"
	 viewBox="0 0 56 56" style="enable-background:new 0 0 56 56;" xml:space="preserve">
<style type="text/css">
	.st0{fill:#446BEB;}
</style>
<g>
	<path class="st0" d="M19.8,33.7c0.3-2.9,1.9-4.6,4.3-4.6c1.9,0,4.2,1.5,4.2,4.5c1.8,0,3.6,0,5.4,0c0-2.1,0-4.1,0-6.2
		c-1.4-0.1-2.7-0.7-3.5-1.9c-0.5-0.8-0.8-1.7-0.7-2.6c0.1-2.2,1.4-3.4,4.3-4.1c0-0.4,0-0.9,0-1.4c0-1.8,1.4-3.2,3.2-3.2
		c4.7,0,9.4,0,14.1,0c1.9,0,3.2,1.5,3.2,3.4c0,8.4,0,16.8-0.1,25.2c0,2.8,0,5.6-0.1,8.3c0,2.2-1.4,3.5-3.6,3.5
		c-11.2,0-22.4-0.1-33.5-0.1c-2.1,0-3.5-1.3-3.5-3.5c0-4.6,0-9.3,0-13.9c0-2.1,1.4-3.5,3.5-3.5C18,33.7,18.9,33.7,19.8,33.7z
		 M53.1,33.7c0-0.1,0-0.2,0-0.3c0-5.3,0-10.7,0-16c0-1.1-0.8-2-2-2c-4.7,0-9.3,0-14,0c-1.2,0-2,0.9-2,2c0,0.6,0,1.3,0,1.9
		c0,0.5-0.2,0.7-0.7,0.7c-0.3,0-0.7,0-1,0.1c-1.9,0.2-3.1,2.2-2.4,4c0.5,1.2,1.5,1.9,3.1,1.9c0.9,0,1,0.1,1,1c0,1.9,0,3.7,0,5.6
		c0,0.3,0,0.6,0,0.9c0.3,0,0.4,0,0.6,0c1.7,0,3.4,0,5.2,0.1c0.7,0,1,0.4,1,1.1c0,0.1,0,0.3,0,0.4c-0.1,1.5,1,2.8,2.5,3
		c1.5,0.2,2.9-0.7,3.3-2.2c0.1-0.4,0.1-0.8,0.1-1.2c0-0.9,0.2-1.2,1.2-1.2c1,0,2.1,0,3.1,0C52.3,33.7,52.7,33.7,53.1,33.7z
		 M33.6,48.4c-2.9-0.4-4.5-1.9-4.5-4.3c0-2.4,1.5-3.9,4.6-4.3c0-1.6,0-3.2,0-4.8c-0.2,0-0.4,0-0.6,0c-1.6,0-3.2,0-4.8,0
		c-1.2,0-1.4-0.2-1.3-1.4c0.1-1.1-0.3-2-1.2-2.6c-1-0.7-2.1-0.8-3.2-0.2c-1.1,0.6-1.6,1.6-1.5,2.9c0.1,1-0.2,1.3-1.2,1.3
		c-0.9,0-1.8,0-2.7,0c-1.5,0-2.3,0.8-2.3,2.2c0,4.6,0,9.2,0,13.8c0,1.5,0.8,2.2,2.3,2.2c5.2,0,10.5,0,15.7,0c0.2,0,0.4,0,0.6,0
		C33.6,51.6,33.6,50,33.6,48.4z M35,35c0,0.2,0,0.4,0,0.6c0,1.5,0,3,0,4.5c0,0.8-0.4,1.1-1.2,1c-0.4,0-0.9,0-1.3,0.1
		c-1.5,0.4-2.3,1.9-2.1,3.4c0.3,1.5,1.6,2.5,3.2,2.4c1-0.1,1.3,0.2,1.3,1.2c0,1.5,0,2.9,0,4.4c0,0.2,0,0.4,0,0.6c0.2,0,0.3,0,0.4,0
		c5.2,0,10.4,0.1,15.7,0.1c1.3,0,2.1-0.8,2.1-2.1c0-5.2,0.1-10.4,0.1-15.7c0-0.2,0-0.3,0-0.5c-1.4,0-2.8,0-4.1,0
		c-0.2,2.7-1.7,4.4-3.9,4.5c-2.6,0.1-4.1-1.3-4.6-4.6C38.6,35,36.9,35,35,35z"/>
	<path class="st0" d="M16.2,4c1.9-2.4,4.1-2.9,6.1-1.6c1.5,1,2.8,3.4,1.2,6.1c0.6,0.4,1.2,0.8,1.9,1.1c0.4,0.2,0.8,0.5,1.2,0.7
		c1.4,1,1.9,2.8,1.1,4.3c-0.6,1.1-1.3,2.1-1.9,3.1c-0.4,0.6-0.8,0.7-1.6,0.2c-1.2-0.8-2.7-0.7-3.7,0.3c-1,0.9-1.3,2.5-0.6,3.6
		c0.3,0.5,0.7,0.8,1.2,1.1c0.7,0.5,0.8,0.9,0.4,1.6c-0.5,0.8-0.9,1.5-1.4,2.2c-1.1,1.6-2.9,2.1-4.6,1.1c-1.4-0.9-2.8-1.7-4.3-2.6
		c-0.7-0.4-0.8-0.8-0.4-1.5c0.8-1.3,0.5-2.9-0.8-3.7c-1.3-0.8-2.9-0.4-3.7,1c-0.4,0.7-0.8,0.8-1.5,0.4c-0.6-0.4-1.3-0.8-1.9-1.2
		c-1.6-1-2-2.9-1.1-4.5c2.4-4.1,4.9-8.1,7.4-12.2c1-1.6,2.9-2,4.5-1.1C14.6,3,15.4,3.5,16.2,4z M12.1,24.4c1.4,0.9,2.9,1.8,4.4,2.6
		c0.8,0.4,1.8,0.2,2.3-0.5c0.5-0.7,1-1.6,1.5-2.3c-2.2-2.1-2.6-4.1-1.3-6.1c1.2-1.9,3.3-2.4,5.8-1.3c0,0,0.1,0,0.1-0.1
		c0.5-0.8,1-1.6,1.5-2.4c0.7-1.2,0.5-2.3-0.7-3c-1-0.6-2-1.2-2.9-1.8c-0.8-0.5-0.9-0.9-0.3-1.7c0.4-0.6,0.7-1.3,0.6-2
		c-0.1-1.4-1.1-2.5-2.5-2.7c-1.3-0.2-2.5,0.5-3.1,1.7c-0.4,0.8-0.9,1-1.7,0.5c-0.8-0.5-1.6-1-2.4-1.5c-1.2-0.7-2.3-0.5-3,0.7
		C9.3,6,8.4,7.6,7.4,9.2C6,11.6,4.5,14,3.1,16.4c-0.6,0.9-0.4,2,0.4,2.6c0.6,0.5,1.3,0.8,1.9,1.2c1.8-1.9,3.7-2.3,5.4-1.2
		C12.5,20.2,13,22.1,12.1,24.4z"/>
	<path class="st0" d="M49.2,22.2c0-1.1,0-2.2,0-3.3c0-0.4,0.1-0.8,0.6-0.8c0.4,0,0.7,0.3,0.7,0.8c0,2.2,0,4.4,0,6.6
		c0,0.4-0.1,0.8-0.6,0.8c-0.4,0-0.7-0.3-0.7-0.8C49.2,24.4,49.2,23.3,49.2,22.2z"/>
	<path class="st0" d="M50.5,29.6c0,0.2,0,0.5,0,0.7c0,0.4-0.3,0.6-0.7,0.6c-0.4,0-0.6-0.3-0.6-0.6c0-0.4,0-0.9,0-1.3
		c0-0.4,0.3-0.6,0.6-0.6c0.4,0,0.6,0.2,0.6,0.6C50.5,29.1,50.5,29.4,50.5,29.6z"/>
	<path class="st0" d="M50.8,42.6c0,1.1,0,2.2,0,3.3c0,0.6-0.2,0.9-0.7,0.8c-0.5,0-0.6-0.4-0.6-0.8c0-2.2,0-4.4,0-6.6
		c0-0.5,0.3-0.9,0.7-0.8c0.5,0.1,0.6,0.4,0.6,0.8C50.7,40.4,50.8,41.5,50.8,42.6z"/>
	<path class="st0" d="M50.7,50c0,0.2,0.1,0.5,0,0.6c-0.1,0.2-0.3,0.5-0.6,0.6c-0.3,0.1-0.6-0.2-0.7-0.5c0-0.5-0.1-1,0-1.5
		c0-0.2,0.4-0.5,0.6-0.5c0.4-0.1,0.6,0.2,0.6,0.6C50.8,49.5,50.7,49.8,50.7,50C50.7,50,50.7,50,50.7,50z"/>
</g>
</svg>
