<?xml version="1.0" encoding="utf-8"?>
<!-- Generator: Adobe Illustrator 23.0.5, SVG Export Plug-In . SVG Version: 6.00 Build 0)  -->
<svg version="1.1" id="Layer_1" xmlns="http://www.w3.org/2000/svg" xmlns:xlink="http://www.w3.org/1999/xlink" x="0px" y="0px"
	 viewBox="0 0 56 56" style="enable-background:new 0 0 56 56;" xml:space="preserve">
<style type="text/css">
	.st0{fill:#DBE7F0;}
	.st1{fill:#A3A8AD;}
	.st2{fill:#FDFFFF;}
	.st3{fill:#446BEB;}
</style>
<circle class="st0" cx="28" cy="28" r="27.2"/>
<path class="st1" d="M37.6,30.2h-9.9c-2.5,0-4.6-2.1-4.6-4.6v-4.2c0-2.5,2.1-4.6,4.6-4.6h9.9c2.5,0,4.6,2.1,4.6,4.6v4.2
	C42.2,28.1,40.1,30.2,37.6,30.2z"/>
<g>
	<path class="st2" d="M38.3,12.2H25.7c-4.9,0-8.8,4-8.8,8.8v5c0,4.8,4,8.8,8.8,8.8h10.1l7.5,7L42,34c3-1.4,5.2-4.5,5.2-8v-5
		C47.1,16.1,43.2,12.2,38.3,12.2z M39.1,28.4H24.9c-0.5,0-0.9-0.4-0.9-0.9c0-0.5,0.4-0.9,0.9-0.9h14.2c0.5,0,0.9,0.4,0.9,0.9
		C40,28,39.6,28.4,39.1,28.4z M39.1,24.4H24.9c-0.5,0-0.9-0.4-0.9-0.9c0-0.5,0.4-0.9,0.9-0.9h14.2c0.5,0,0.9,0.4,0.9,0.9
		C40,24,39.6,24.4,39.1,24.4z M39.1,20.4H24.9c-0.5,0-0.9-0.4-0.9-0.9c0-0.5,0.4-0.9,0.9-0.9h14.2c0.5,0,0.9,0.4,0.9,0.9
		C40,20,39.6,20.4,39.1,20.4z"/>
	<path class="st3" d="M25,23.5h-8.2c-2.2,0-4.2,0.9-5.6,2.3s-2.4,3.5-2.4,5.6c0,4,3,7.3,6.8,7.9l-1.7,4.5l6.2-4.4h5
		c2.2,0,4.2-0.9,5.6-2.3s2.3-3.5,2.3-5.6C33,27.1,29.4,23.5,25,23.5z M15,33.5c-1.1,0-2.1-0.9-2.1-2.1c0-1.1,0.9-2.1,2.1-2.1
		c1.1,0,2.1,0.9,2.1,2.1C17,32.6,16.1,33.5,15,33.5z M20.9,33.5c-1.1,0-2-0.9-2-2.1c0-1.1,0.9-2.1,2-2.1c1.1,0,2.1,0.9,2.1,2.1
		C23,32.6,22.1,33.5,20.9,33.5z M26.9,33.5c-1.1,0-2.1-0.9-2.1-2.1c0-1.1,0.9-2.1,2.1-2.1c1.1,0,2,0.9,2,2.1
		C29,32.6,28.1,33.5,26.9,33.5z"/>
</g>
</svg>
