<?xml version="1.0" encoding="utf-8"?>
<!-- Generator: Adobe Illustrator 23.0.5, SVG Export Plug-In . SVG Version: 6.00 Build 0)  -->
<svg version="1.1" id="Layer_1" xmlns="http://www.w3.org/2000/svg" xmlns:xlink="http://www.w3.org/1999/xlink" x="0px" y="0px"
	 viewBox="0 0 56 56" style="enable-background:new 0 0 56 56;" xml:space="preserve">
<style type="text/css">
	.st0{fill:#DBE7F0;}
	.st1{fill:#FFFFFF;}
	.st2{fill:#A3A8AD;}
	.st3{fill:#DDE8EF;}
	.st4{fill:#446BEB;}
</style>
<g>
	<circle class="st0" cx="21.3" cy="28.2" r="10.1"/>
	<path class="st0" d="M35.5,41.7c0,0.7-0.6,1.3-1.3,1.3H8.4c-0.7,0-1.3-0.6-1.3-1.3c0-0.7,0.6-1.3,1.3-1.3h25.8
		C34.9,40.4,35.5,41,35.5,41.7z"/>
	<path class="st0" d="M55.2,28.5c0,11.6-7.3,21.5-17.5,25.4V19.7c0-3.7,3-6.6,6.6-6.7H11.7C8,13,5,16.1,5,19.7v23.4
		c-2.7-4.2-4.2-9.2-4.2-14.6C0.8,13.5,13,1.3,28,1.3S55.2,13.5,55.2,28.5z"/>
	<g>
		<path class="st1" d="M11.7,13C8,13,5,16.1,5,19.7v34.4h32.8V19.7c0-3.7,3-6.6,6.6-6.7H11.7z M21.3,18.1c5.6,0,10.1,4.5,10.1,10.1
			c0,5.6-4.5,10.1-10.1,10.1s-10.1-4.5-10.1-10.1C11.3,22.7,15.8,18.1,21.3,18.1z M34.2,51.9H8.4c-0.7,0-1.3-0.6-1.3-1.3
			c0-0.7,0.6-1.3,1.3-1.3h25.8c0.7,0,1.3,0.6,1.3,1.3C35.5,51.3,34.9,51.9,34.2,51.9z M34.2,47.4H8.4c-0.7,0-1.3-0.6-1.3-1.3
			c0,0,0-0.1,0-0.1c0-0.7,0.6-1.2,1.3-1.2h25.8c0.7,0,1.3,0.6,1.3,1.3C35.5,46.8,34.9,47.4,34.2,47.4z M34.2,43H8.4
			c-0.7,0-1.3-0.6-1.3-1.3c0-0.7,0.6-1.3,1.3-1.3h25.8c0.7,0,1.3,0.6,1.3,1.3C35.5,42.4,34.9,43,34.2,43z"/>
		<circle class="st1" cx="21.3" cy="28.2" r="10.1"/>
		<path class="st1" d="M35.5,41.7c0,0.7-0.6,1.3-1.3,1.3H8.4c-0.7,0-1.3-0.6-1.3-1.3c0-0.7,0.6-1.3,1.3-1.3h25.8
			C34.9,40.4,35.5,41,35.5,41.7z"/>
		<path class="st2" d="M51,19.7v12.5H37.8V19.7c0-3.7,3-6.6,6.6-6.7C48,13.1,51,16.1,51,19.7z"/>
		<g>
			<path class="st3" d="M35.5,41.7c0,0.7-0.6,1.3-1.3,1.3H8.4c-0.7,0-1.3-0.6-1.3-1.3c0-0.7,0.6-1.3,1.3-1.3h25.8
				C34.9,40.4,35.5,41,35.5,41.7z"/>
			<path class="st0" d="M35.5,46.1c0,0.7-0.6,1.3-1.3,1.3H8.4c-0.7,0-1.3-0.6-1.3-1.3c0,0,0-0.1,0-0.1c0-0.7,0.6-1.2,1.3-1.2h25.8
				C34.9,44.8,35.5,45.4,35.5,46.1z"/>
			<path class="st0" d="M35.5,50.6c0,0.7-0.6,1.3-1.3,1.3H8.4c-0.7,0-1.3-0.6-1.3-1.3c0-0.7,0.6-1.3,1.3-1.3h25.8
				C34.9,49.3,35.5,49.9,35.5,50.6z"/>
		</g>
		<circle class="st4" cx="21.3" cy="28.2" r="10.1"/>
	</g>
	<g>
		<path class="st1" d="M22,30.2h-1.7v-0.4c0-0.4,0-0.7,0.1-0.9c0.1-0.2,0.2-0.4,0.4-0.7c0.2-0.3,0.5-0.5,0.7-0.7
			c0.3-0.3,0.5-0.6,0.6-0.8s0.2-0.5,0.2-0.8c0-0.4-0.1-0.8-0.4-1.1c-0.3-0.3-0.6-0.4-1-0.4c-1.1,0-1.6,0.6-1.6,1.8v0.2h-1.7v-0.4
			c0-2.1,1.1-3.2,3.3-3.2c0.9,0,1.6,0.3,2.2,0.8c0.6,0.5,0.9,1.2,0.9,2c0,0.6-0.1,1-0.3,1.5c-0.2,0.4-0.6,0.9-1.2,1.5
			C22.1,29,22,29.4,22,29.9V30.2z M20,32h2.3v2.1H20V32z"/>
	</g>
</g>
</svg>
